<svg width="260" height="260" viewBox="0 0 260 260" fill="none" xmlns="http://www.w3.org/2000/svg">
<circle cx="130" cy="130" r="130" fill="#EBF0E4"/>
<path d="M169.531 56.1465L163.063 65.6685C163.063 65.6685 166.587 68.4112 168.272 72.3212C169.733 75.754 170.791 79.779 165.219 86.5122L160.188 91.5492C143.254 77.1282 126.044 76.4497 126.044 76.4497H122.813L121.013 79.3247C121.013 79.3247 106.35 104.257 92.2629 129.999C85.2191 142.868 78.2501 155.966 73.4086 166.299C70.9764 171.463 69.0674 175.959 67.8311 179.593C67.2274 181.41 66.7961 182.94 66.5776 184.624C66.3476 186.309 65.7209 188.621 68.5499 191.455C71.3846 194.284 73.6961 193.652 75.3809 193.428C77.0656 193.203 78.5951 192.778 80.4121 192.174C84.0519 190.938 88.5426 189.029 93.7119 186.597C104.027 181.749 117.126 174.792 130 167.742C155.72 153.632 180.675 138.992 180.675 138.992L183.55 137.193V133.777C183.55 133.777 182.785 116.774 168.456 99.8177L170.428 97.6615C170.923 97.167 171.371 96.8277 171.866 96.4022L173.303 95.143C180.088 89.9335 186.511 90.1405 192.175 91.555C196.104 92.5477 199.818 94.2509 203.134 96.5805L210.322 87.599C210.322 87.599 203.939 82.6827 194.866 80.4115C192.859 79.9398 190.817 79.6397 188.759 79.5145L200.438 67.8305L192.169 59.5677L180.134 71.6082C179.844 70.2519 179.422 68.927 178.875 67.6522C175.638 60.1082 169.531 56.1522 169.531 56.1522V56.1465ZM128.919 88.6685C132.697 89.0307 143.501 90.6005 156.416 103.584C169.353 116.613 170.946 127.331 171.325 131.075C170.382 131.638 165.466 134.605 161.625 136.825C159.588 132.307 157.056 128.03 154.075 124.071L144.916 131.08C148.958 136.468 150.62 140.177 151.563 142.58C142.557 147.682 133.512 152.714 124.428 157.674C123.871 157.962 123.376 158.278 122.813 158.571C121.755 155.426 120.03 151.631 116.884 147.249L107.541 153.896C110.37 157.852 111.761 161.107 112.394 163.24C112.503 163.602 112.503 163.689 112.566 163.959C103.97 168.565 95.6611 172.986 88.8531 176.178C85.3054 177.845 82.7869 178.765 80.2281 179.771C81.2401 177.213 82.1601 174.694 83.8219 171.146C88.4679 161.245 95.3449 148.33 102.325 135.571C105.695 129.419 108.259 124.813 111.313 119.396C113.153 121.012 115.533 123.191 118.144 126.584L127.125 119.575C124.209 115.704 120.83 112.205 117.063 109.156C123.083 98.5987 127.89 90.4452 128.925 88.6685H128.919Z" fill="black"/>
</svg>
