<svg width="495" height="430" viewBox="0 0 495 430" fill="none" xmlns="http://www.w3.org/2000/svg">
<path d="M166.871 150.718C152.079 130.744 132.83 88.303 145.191 61.023C168.121 10.4162 249.439 -9.5311 276.63 6.23419C270.202 6.78267 249.95 14.5934 228.825 27.8688C209.623 39.9359 201.689 71.7135 226.45 50.9974C235.118 43.7447 260.128 24.7627 276.616 20.8862C310.007 13.0359 342.203 18.435 363.599 38.7448C348.634 38.2829 319.93 38.5482 289.039 49.6383C250.426 63.501 236.119 81.4472 236.927 83.3207C237.734 85.1942 236.615 83.0101 272.009 68.6838C328.434 45.8442 397.288 46.1824 435.798 102.067C397.816 76.7553 364.459 82.5554 318.596 89.2562C296.092 92.5441 255.829 108.496 260.489 112.967C265.148 117.438 270.702 114.304 288.586 109.745C306.469 105.185 343.322 102.825 365.999 104.715C415.96 108.88 467.013 108.35 491.636 192.678C449.804 150.659 390.712 145.892 339.791 143.921C329.002 143.503 262.128 147.266 265.012 164.516C266.744 174.877 297.533 167.663 306.197 167.077C314.862 166.49 354.956 162.965 366.41 162.843C377.863 162.72 402.536 161.899 432.67 175.755C462.805 189.612 477.642 208.023 482.139 214.786C486.635 221.549 495.016 243.668 494.44 260.021C493.98 273.104 494.208 286.963 494.38 292.257C487.824 281.939 469.871 258.637 442.296 241.641C407.828 220.397 380.139 213.167 366.935 210.897C353.731 208.627 333.005 208.152 332.61 215.912C332.214 223.672 353.147 234.383 363.479 239.001C373.811 243.62 398.144 253.911 407.129 258.739C416.113 263.568 441.036 280.944 456.981 295.917C472.926 310.889 476.412 323.985 478.231 345.23C479.687 362.225 466.073 398.761 461.443 405.261C464.611 395.257 461.022 380.02 448.42 364.713M166.871 150.718L153.451 149.281M166.871 150.718C168.628 140.889 167.418 106.047 172.917 87.8314C179.789 65.0625 188.645 53.2828 199.122 41.5485M166.871 150.718C171.818 140.502 185.743 115.743 201.869 98.4276C222.028 76.7829 246.442 57.0062 260.017 47.4542M166.871 150.718C170.072 151.587 174.335 153.002 179.51 155.017M166.871 150.718C118.163 158.664 55.7776 225.647 67.2916 275.397M448.42 364.713C402.697 346.741 433.69 381.102 413.399 379.594C397.072 378.382 379.645 373.262 350.789 340.344C333.244 320.328 310.644 259.926 302.094 274.6C292.304 291.402 304.876 328.335 328.282 359.765C357.098 398.458 398.466 405.377 402.103 407.142C396.412 407.064 356.077 427.154 335.464 423.667C320.033 421.057 293.225 414.606 270.987 379.021C248.749 343.436 245.015 295.679 244.107 282.557C243.381 272.06 247.159 242.8 249.139 229.482C248.797 222.904 245.789 212.563 236.49 223.826C224.866 237.906 229.543 301.053 235.71 330.05C242.749 363.144 267.381 407.486 295.796 429.463C285.112 427.588 252.515 425.955 231.974 416.739C206.298 405.22 189.935 393.841 180.211 365.266C170.486 336.691 167.822 312.469 168.563 290.491C169.304 268.513 176.49 240.796 179.568 232.25C182.03 225.414 190.969 207.944 193.745 199.59C172.124 205.454 162.255 235.271 158.193 255.07C155.043 270.425 150.478 294.53 150.753 307.185C151.261 330.538 153.955 387.35 184.393 398.837C157.048 393.163 122.802 363.832 110.779 340.123C97.3746 313.689 100.831 282.84 103.829 272.107C106.827 261.375 121.295 223.856 129.468 211.448C136.007 201.522 141.239 191.813 143.038 188.2C144.832 185.02 146.474 179.685 138.688 183.78C130.903 187.875 120.379 201.481 116.09 207.772C112.745 213.471 105.442 226.318 102.991 232.113C99.9278 239.357 90.8034 264.577 89.4232 274.058C88.0429 283.538 86.4975 298.643 88.7136 310.461C90.4864 319.915 95.075 330.118 97.1477 334.038C75.0376 328.414 42.1505 298.591 38.9716 258.814C35.9117 220.524 62.3823 195.697 86.3541 172.947C89.3919 170.651 95.3722 162.165 82.295 164.394C50.3339 169.842 25.9749 210.939 20.4649 239.658C14.2376 235.554 1.6435 208.404 0.985486 191.657C0.0324261 167.401 12.0125 145.651 32.7619 133.892M448.42 364.713C436.317 354.873 399.013 324.303 388.681 315.279C377.631 305.628 348.021 290.652 317.683 245.692M153.451 149.281C142.812 139.612 131.444 131.923 122.149 127.042C112.855 122.162 94.0596 118.599 71.4614 120.562C59.0073 121.644 44.3076 127.348 32.7619 133.892M153.451 149.281C134.434 148.652 43.7262 143.162 27.0608 177.29M153.451 149.281C129.992 142.128 79.1084 127.894 63.2373 128.179C47.3661 128.464 36.3074 132.106 32.7619 133.892M194.688 161.533C185.925 169.123 166.187 189.183 157.335 208.695C146.271 233.085 129.496 274.93 126.513 304.724C124.127 328.558 127.981 343.953 130.205 348.671M194.688 161.533C189.024 158.9 183.934 156.739 179.51 155.017M194.688 161.533C198.856 163.47 203.336 165.664 208.09 168.127M227.096 178.634C221.605 184.147 209.689 205.757 205.955 248.092C201.287 301.01 205.138 327.303 211.684 353.175C216.921 373.872 223.776 388.134 226.549 392.677M227.096 178.634C220.382 174.694 214.023 171.201 208.09 168.127M227.096 178.634C235.91 183.804 245.336 189.743 255.21 196.509M274.392 210.316C279.53 214.195 284.752 218.285 290.039 222.594C300.252 230.919 309.425 238.603 317.683 245.692M274.392 210.316C271.771 220.254 271.181 247.827 275.374 284.33C280.723 330.894 284.919 337.815 297.58 369.703C305.507 389.669 318.86 399.79 325.418 403.087M274.392 210.316C267.847 205.375 261.439 200.777 255.21 196.509M179.51 155.017C193.388 140.605 226.457 109.491 247.709 100.333C274.275 88.8849 288.603 81.4148 310.125 76.9536M208.09 168.127C212.6 161.062 231.466 144.948 270.85 137.01C320.079 127.088 345.897 125.588 388.152 128.853C421.955 131.465 438.306 141.549 442.255 146.264M255.21 196.509C266.808 194.164 301.241 189.111 346.182 187.664C391.124 186.217 439.291 212.147 457.756 225.293M317.683 245.692C341.036 253.269 402.783 286.618 418.093 299.716C433.403 312.815 447.903 329.509 453.239 336.218" stroke="black" stroke-linecap="round" stroke-linejoin="round"/>
</svg>
