<svg width="517" height="401" viewBox="0 0 517 401" fill="none" xmlns="http://www.w3.org/2000/svg">
<path d="M438.403 34.3662C479.95 10.8588 516.236 -8.81401 516.236 -8.81401M165.216 241.849C157.674 250.033 150.534 258.213 143.913 266.311M288.261 199.211C288.261 199.211 288.255 199.182 288.232 199.115C287.906 197.839 284.614 184.368 286.44 165.408C287.73 151.995 291.574 135.839 300.852 119.322L300.85 119.313C300.85 119.313 300.85 119.313 300.86 119.31L300.858 119.301L300.868 119.298C300.868 119.298 300.868 119.298 300.866 119.289M300.202 119.302L300.204 119.312L300.214 119.31M301.435 123.613C301.435 123.613 294.983 154.591 336.512 166.556M286.926 165.289C270.53 173.584 263.579 186.509 261.643 190.782M199.86 284.688C211.626 288.075 227.456 288.003 248.516 280.181M271.52 205.601C270.036 201.519 267.307 195.756 262.515 190.456C256.343 183.637 246.757 177.591 232.019 176.89C225.038 176.552 216.896 177.416 207.406 179.97C165.197 191.327 161.754 223.179 164.386 242.389C165.35 249.372 167.108 254.684 168.105 256.741C169.256 259.121 171.898 264.314 176.73 269.666M96.6866 301.236C86.4003 318.137 80.9985 341.327 91.3466 364.707C106.933 399.95 138.948 405.939 172.086 396.11C205.223 386.281 222.602 346.347 218.354 322.705C216.103 310.158 211.005 295.22 200.905 284.105C195.219 277.834 187.928 272.784 178.661 270.052C173.393 268.496 167.475 267.701 160.849 267.853C154.048 268.011 148.222 268.52 143.223 269.258M92.3548 362.991C71.395 387.033 44.0918 384.118 26.5272 370.378C21.5102 366.452 17.2761 361.632 14.2306 356.312C10.6749 350.101 8.58784 343.666 7.67394 337.306C5.03283 319.194 11.8418 301.747 20.8911 292.092C29.5865 282.808 45.2387 279.608 53.541 278.528M13.9744 338.572C13.9744 338.572 3.23202 333.107 1.09108 341.332C-1.04986 349.556 8.83102 352.898 11.5175 360.96C14.2039 369.023 12.0338 379.951 16.8731 382.105C21.7105 384.249 28.4917 381.032 27.347 370.106M418.288 45.2797C418.288 45.2797 394.007 58.551 401.472 97.9942C408.939 137.447 438.285 147.337 438.285 147.337C459.715 119.001 457.349 88.329 453.318 63.4272C451.118 49.7826 444.077 40.0324 437.399 35.3621M437.399 35.3621C436.53 34.7539 435.668 34.2359 434.832 33.8039C430.315 31.4926 427.622 32.9276 424.557 34.8503C416.043 40.1865 422.408 46.7998 432.724 42.6968C434.877 41.8468 437.449 39.0107 437.399 35.3621ZM437.399 35.3621C437.407 34.4737 437.298 33.5185 437.077 32.516C435.417 24.7796 427.119 13.9541 404.87 4.01714C367.978 -12.4559 322.442 -7.41886 322.442 -7.41886C322.442 -7.41886 346.505 25.2053 367.945 44.6734M367.945 44.6734C383.03 41.207 395.519 41.6009 400.5 42.0492C410.987 42.9959 412.906 53.1334 394.007 58.551C387.884 60.3054 378.22 53.9935 367.945 44.6734ZM367.945 44.6734C351.236 48.5093 331.335 57.0882 314.919 75.5698C314.919 75.5698 353.694 81.8017 381.372 66.2817C365.261 76.1151 336.051 92.9227 326.07 100.001C318.083 105.663 308.909 112.415 298.919 120.046C298.921 120.056 298.921 120.056 298.921 120.056L298.911 120.058C298.901 120.06 298.901 120.06 298.901 120.06L298.903 120.07M250.296 160.055C243.993 165.383 237.616 170.868 231.244 176.484M286.819 134.47C286.819 134.47 266.569 154.4 234.454 164.64C202.34 174.881 161.654 174.185 161.654 174.185C161.654 174.185 160.822 154.092 200.031 121.964C239.24 89.8357 279.121 108.359 286.025 113.646C292.918 118.936 291.729 124.486 279.304 126.331C266.878 128.177 230.685 94.9017 222.121 71.8477C212.802 46.767 212.267 19.7887 212.267 19.7887C212.267 19.7887 250.268 36.0688 280.105 65.9651C309.942 95.8614 297.408 115.996 297.408 115.996L297.396 115.988M232.875 98.1855C232.875 98.1855 205.975 88.291 195.947 90.5083C195.947 90.5083 163.117 23.2178 71.4803 79.2598C71.4803 79.2598 90.3517 109.083 130.71 108.497C171.069 107.911 186.287 89.9757 186.287 89.9757C186.287 89.9757 110.184 88.3462 103.66 79.5632M273.048 95.7806C273.048 95.7806 247.504 62.635 243.374 58.3215C240.781 55.6191 228.054 58.7322 237.207 71.2035C247.406 85.0952 266.462 79.641 266.462 79.641M262.714 125.516C262.714 125.516 200.724 137.132 188.711 154.439M215.487 121.754C215.487 121.754 241.022 122.2 252.714 134.63M341.575 62.2258C341.575 62.2258 356.236 65.3495 369.347 62.818C382.458 60.2865 382.458 60.2864 382.458 60.2864M408.691 39.8361C408.691 39.8361 383.336 8.50654 359.92 9.58931M429.862 56.2992C429.862 56.2992 424.044 84.2961 428.904 104.958C433.764 125.62 421.08 122.4 418.583 109.268C416.087 96.1361 432.037 87.2337 432.037 87.2337M417.593 57.8029C417.593 57.8029 430.896 62.6441 434.643 72.7055M319.022 198.68C319.022 198.68 324.29 164.879 366.823 156.443C403.411 149.192 422.252 191.337 416.323 210.146C412.792 221.357 401.978 248.421 355.336 251.227M116.325 72.5401C116.325 72.5401 140.804 75.0135 149.279 92.5949M395.309 18.0345C395.309 18.0345 376.994 28.4563 362.259 21.0313M292.039 199.652C285.384 200.532 276.946 203.984 271.413 207.353C246.644 223.641 235.595 253.589 247.737 281.047C251.055 288.541 257.057 298.442 264.46 303.154C307.076 330.285 347.245 292.318 350.686 280.562C352.183 275.444 357.69 262.124 355.198 243.232C355.198 243.232 351.935 220.382 332.527 207.477C313.565 194.853 292.039 199.652 292.039 199.652ZM144.342 265.276C144.342 265.276 143.743 266.036 142.625 267.324C118.47 272.514 114.06 279.242 114.06 279.242C107.761 283.78 101.308 290.723 96.1012 299.291C89.7304 300.619 83.1767 300.49 76.7571 298.074C65.0512 293.669 57.2365 286.444 52.0751 278.577C43.0899 264.897 41.809 253.663 42.7313 243.115C43.9185 229.499 54.8149 219.983 54.8149 219.983C70.073 202.723 105.119 191.804 128.643 211.122C152.155 230.432 144.342 265.276 144.342 265.276ZM64.826 245.858C68.0596 243.585 67.7947 226.482 76.8718 229.725C85.9489 232.968 86.753 245.668 83.2604 247.773C79.7679 249.878 72.359 253.049 71.3891 250.324C70.4193 247.6 72.5095 245.338 73.8893 246.63C75.2773 247.91 77.9803 265.844 73.2095 268.447C68.4387 271.051 56.9711 260.032 60.4048 258.815C63.8385 257.599 64.4379 258.366 64.8083 260.323C65.1788 262.281 57.477 271.156 52.1233 264.628C46.7695 258.1 51.805 248.443 56.2267 248.847C60.6663 249.237 64.826 245.858 64.826 245.858ZM294.963 272.743C297.665 272.123 296.336 256.529 304.848 258.11C313.361 259.69 315.015 270.804 313.093 273.913C311.171 277.023 306.503 276.452 307.287 273.364C308.07 270.276 328.342 260.755 330.145 268.906C331.947 277.057 325.91 287.346 318.612 287.34C311.314 287.334 309.831 283.15 306.712 284.722C303.593 286.294 310.257 300.601 299.095 300.298C287.932 299.996 287.028 281.979 289.938 281.689C292.849 281.41 294.327 281.985 294.6 284.623C294.874 287.262 290.418 293.835 279.832 287.345C269.245 280.846 276.816 270.238 282.118 269.323C287.409 268.401 287.852 274.38 294.963 272.743ZM142.559 355.644C145.303 355.795 148.474 340.345 156.117 344.248C163.76 348.15 162.181 359.358 159.47 361.824C156.761 364.299 152.479 362.442 154.104 359.672C155.728 356.903 177.697 353.347 177.096 361.732C176.494 370.117 167.837 378.386 160.897 376.349C153.956 374.302 153.739 369.85 150.324 370.502C146.909 371.153 149.184 386.843 138.662 383.436C128.141 380.03 132.391 362.353 135.239 362.887C138.087 363.421 139.332 364.4 138.843 367.027C138.354 369.654 132.246 374.773 124.026 365.544C115.805 356.316 126.017 348.159 131.315 348.755C136.611 349.342 135.346 355.256 142.559 355.644ZM374.608 204.86C382.361 205.36 375.074 214.672 380.6 216.311C384.475 217.451 389.488 219.81 388.087 225.692C386.972 230.363 373.811 237.337 367.207 225.215C363.796 218.964 374.228 220.383 373.93 223.324C373.672 225.829 369.583 234.169 364.472 233.691C359.352 233.215 354.411 229.712 356.594 223.439C358.075 219.177 363.52 220.335 364.475 213.024C365.302 206.666 367.972 204.436 374.608 204.86ZM180.614 221.333C184.78 217.656 188.073 229.303 190.179 229.311C193.423 229.309 194.533 219.181 199.253 228.67C203.973 238.159 196.27 243.578 193.839 241.032C191.408 238.486 193.764 236.64 194.617 237.203C195.48 237.765 201.135 250.275 195.565 256.176C189.997 262.086 180.502 245.278 182.963 244.749C185.423 244.221 189.232 245.448 185.92 248.103C182.607 250.757 176.781 249.933 176.437 241.109C176.094 232.285 181.584 237.907 182.293 234.42C183.001 230.934 175.443 225.89 180.614 221.333Z" stroke="black" stroke-miterlimit="10"/>
</svg>
