<svg width="536" height="423" viewBox="0 0 536 423" fill="none" xmlns="http://www.w3.org/2000/svg">
<path d="M536 18.8443C536 18.8443 424.503 41.2878 293.852 124.074C163.201 206.861 130.484 271.417 130.484 271.417M420.688 50.9739C420.688 50.9739 406.474 39.4745 395.081 34.7667C383.687 30.0589 360.551 22.2852 354.769 19.5731C348.997 16.863 327.493 -3.15736 325.262 1.77956C323.031 6.71648 334.567 22.3718 342.936 25.6874C351.306 29.0029 357.13 30.0222 367.885 34.9197C378.64 39.8171 395.508 51.9557 398.611 52.6587C403.681 53.81 406.095 48.6078 400.76 46.6767C395.424 44.7456 385.08 48.0579 378.725 48.156C372.37 48.2541 303.963 40.4814 295.39 38.1443C286.818 35.8072 265.934 40.4885 293.094 49.2106C320.255 57.9327 361.816 54.5025 384.988 58.6943C408.158 62.8959 408.158 62.8959 408.158 62.8959M430.49 53.3311C430.38 53.6439 384.522 84.1685 360.329 116.39C336.137 148.611 366.209 121.515 371.45 116.592C376.7 111.672 391.967 99.1984 405.871 87.4328C413.84 80.6946 421.814 75.8554 427.744 72.3858M427.744 72.3858C430.161 64.1481 429.856 59.4507 434.709 59.0231C440.348 58.5321 439.79 63.6234 436.747 66.6579C435.443 67.9542 432.157 69.7936 427.744 72.3858ZM427.744 72.3858C425.986 78.3665 424.174 85.5657 422.292 92.2765C420.578 98.3908 418.806 104.091 416.974 108.106C410.347 122.594 377.122 160.556 370.794 170.672C364.472 180.8 337.979 218.291 341.759 221.901C345.539 225.511 354.377 210.513 357.836 205.523C360.756 201.291 408.225 137.239 429.177 101.914M429.177 101.914C433.005 95.4512 435.95 89.9625 437.57 85.9601C444.257 69.4758 447.153 54.7334 448.375 46.2172M429.177 101.914C427.408 107.204 424.565 114.522 419.989 124.154C408.738 147.801 375.029 192.473 372.068 196.552C369.105 200.642 355.97 227.594 378.367 201.098C400.766 174.593 419.797 142.532 424.628 133.77C429.47 125 435.789 114.882 441.263 94.3195C446.734 73.7665 443.682 70.3263 443.682 70.3263M425.518 80.3601C425.518 80.3601 367.215 138.449 359.122 155.673C351.022 172.884 344.176 186.983 366.356 160.088C388.536 133.193 402.647 114.654 407.248 109.931C411.849 105.208 422.299 92.2882 422.299 92.2882M389.495 59.4989C377.262 65.6634 346.793 80.8502 334.104 85.7085C318.034 91.8607 295.079 102.152 283.187 104.18C271.294 106.208 244.292 109.802 274.645 98.804C304.992 87.7944 333.261 76.6492 343.184 72.4796C346.673 71.0159 350.498 68.4609 354.158 66.0008M354.158 66.0008C360.887 61.4765 367.012 57.2832 369.339 60.8518C370.572 62.7394 363.899 64.456 354.158 66.0008ZM354.158 66.0008C335.537 68.9632 305.694 71.2891 298.414 72.9564C287.324 75.4897 252.535 81.7092 240.497 82.9955C228.459 84.2819 211.13 86.3554 211.13 86.3554C211.13 86.3554 180.681 84.7344 210.999 76.7954C241.325 68.8584 321.129 59.4907 321.129 59.4907L337.936 55.5206L337.946 55.5128M331.478 152.08C324.574 167.816 312.408 196.358 300.718 227.678C283.045 275.062 287.523 266.557 276.599 293.008C265.685 319.452 268.34 297.904 270.692 290.944C273.042 283.993 278.716 262.462 283.409 248.549C285.946 241.047 294.068 220.537 302.643 199.067M331.478 152.08C331.876 150.644 332.301 149.122 332.75 147.483C341.45 115.743 344.623 100.45 344.623 100.45C344.623 100.45 331.505 106.941 308.127 141.055C284.755 175.181 279.054 189.536 275.778 196.619C272.494 203.701 265.047 232.328 281.876 202.134C298.703 171.95 313.088 151.351 319.855 143.451C322.059 140.877 325.064 137.372 327.968 133.7M331.478 152.08C324.1 178.497 324.212 172.973 311.919 211.528C298.957 252.174 316.259 219.7 319.113 213.205C321.976 206.713 334.159 172.707 340.762 145.258C346.155 122.81 350.775 98.314 352.275 90.1191M302.643 199.067C302.645 199.057 302.647 199.047 302.647 199.047M302.643 199.067C297.565 205.166 290.117 214.908 283.928 226.103C273.426 245.093 266.274 265.696 249.918 293.61C233.562 321.524 241.78 296.482 244.349 289.921C246.917 283.36 272.02 227.809 288.51 204.019C298.07 190.225 306.458 181.205 311.826 176.066M302.643 199.067C302.643 199.067 302.656 199.049 302.647 199.047M302.647 199.047C305.729 191.323 308.874 183.471 311.826 176.066M311.826 176.066L311.828 176.056C315.911 165.827 319.646 156.44 322.41 149.329C324.763 143.282 326.549 138.088 327.968 133.7M327.968 133.7C332.749 118.792 333.17 113.217 336.474 115.578C339.51 117.742 333.968 126.082 327.968 133.7ZM303.685 117.935C296.435 118.583 283.597 119.786 270.315 121.295L270.306 121.293M270.306 121.293C259.311 122.535 248.029 123.987 239.37 125.518C239.37 125.518 239.37 125.518 239.362 125.516M270.306 121.293C258.181 118.056 231.889 111.885 199.154 109.167C153.757 105.405 129.458 123.62 125.68 125.816C121.905 128.003 114.039 135.381 128.543 130.915C143.056 126.451 152.541 120.015 184.236 119.958C207.17 119.919 229.02 123.526 239.362 125.516M239.362 125.516C236.865 125.96 234.592 126.415 232.602 126.864C211.071 131.733 142.073 155.898 130.444 161.034C118.814 166.17 92.1174 187.232 133.958 171.742C175.807 156.254 197.502 149.146 204.821 145.847C206.531 145.086 210.913 144.046 216.6 142.838M216.6 142.838C225.555 140.925 237.731 138.584 247.672 136.203M216.6 142.838C198.495 154.158 162.943 176.13 139.424 189.049C106.72 207.008 120.476 210.563 145.645 198.347C164.304 189.3 219.129 152.434 247.672 136.203M247.672 136.203C258.5 133.619 266.698 130.986 265.301 128.794C264.396 127.383 257.634 130.535 247.672 136.203ZM267.429 141.456C266.055 150.398 263.223 166.673 259.19 179.109C253.324 197.191 231.985 272.391 222.487 294.898C212.989 317.404 207.625 324.36 215.579 293.287C223.533 262.214 239.304 216.776 242.93 203.63C246.563 190.496 252.116 173.706 252.116 173.706C252.116 173.706 192.914 268.718 189.614 274.432C186.313 280.145 158.8 310.567 185.942 265.052C213.077 219.525 229.027 193.567 241.324 173.58C246.788 164.699 251.381 156.558 254.805 150.248M182.544 209.165C179.873 230.043 172.394 285.907 165.356 312.782C156.613 346.216 144.95 382.045 143.569 385.816C142.178 389.585 125.959 416.843 137.772 381.736C149.585 346.629 158.816 323.875 165.718 285.581C170.267 260.289 173.438 232.45 175.07 216.449M168.337 223.311C161.845 221.049 145.124 216.299 122.285 217.807C92.6125 219.752 52.9392 226.197 30.61 230.541C8.28075 234.885 5.46463 244.127 35.5969 238.525C65.7271 232.932 97.4791 229.759 111.376 228.219C125.271 226.688 141.209 226.988 148.387 227.297C153.012 227.493 158.781 228.818 162.304 229.732C159.227 243.119 129.654 348.116 116.166 375.335C102.668 402.551 106.381 384.655 108.447 377.628C110.503 370.609 119.328 342.642 130.21 313.462C141.095 284.272 149.704 251.485 150.161 247.837C150.388 246.043 150.071 245.385 148.604 245.545C147.104 245.688 144.401 246.689 139.83 248.157C136.057 249.37 129.947 251.392 122.7 253.908M122.7 253.908C112.637 257.399 100.398 261.839 89.2699 266.394C70.1405 274.213 46.0928 283.952 18.3704 304.098C-9.35205 324.243 1.48805 308.348 13.9792 297.617C26.4703 286.886 40.7689 277.592 66.715 266.008C92.6611 254.424 127.134 242.468 138.862 239.745C144.726 238.384 150.902 237.618 155.639 237.184M122.7 253.908C114.943 261.547 102.037 273.884 92.1928 281.395C77.1288 292.891 53.7889 307.924 37.9663 321.632C22.1523 335.342 6.9454 357.719 4.95967 359.984C2.98259 362.252 -5.43004 382.458 11.1249 365.176C27.6906 347.886 26.1865 347.874 44.6846 330.02C57.3631 317.774 86.8995 295.097 110.825 277.984M138.036 259.473C131.595 263.439 121.804 270.122 110.825 277.984M110.825 277.984C102.826 287.054 92.8661 299.627 84.5239 313.981C67.5085 343.28 51.2308 375.542 37.8986 406.335C24.5664 437.129 43.5502 414.003 46.5383 408.35C49.5177 402.695 59.7344 378.211 78.7705 341.711C89.374 321.4 105.81 304.08 116.984 291.996M116.984 291.996C119.608 281.54 121.857 270.832 128.083 274.243C131.449 276.084 125.878 282.376 116.984 291.996ZM116.984 291.996C116.408 294.293 115.816 296.576 115.16 298.69C111.509 310.466 105.023 330.095 97.6924 345.783C90.3623 361.472 81.2963 376.078 68.4008 398.993C55.4967 421.906 68.6775 409.295 72.7007 404.427C76.7305 399.571 85.7832 389.403 103.704 349.575C121.624 309.747 134.224 272.289 134.224 272.289" stroke="#233000" stroke-miterlimit="10"/>
</svg>
