<svg width="409" height="234" viewBox="0 0 409 234" fill="none" xmlns="http://www.w3.org/2000/svg">
<path d="M0 55.6155C0 55.6155 76.2682 48.286 175.367 78.1048C274.465 107.924 306.828 145.189 306.828 145.189M80.4141 54.0987C80.4141 54.0987 87.6638 43.4002 94.2517 37.8909C100.84 32.3816 114.525 22.4084 117.812 19.393C121.094 16.3808 131.61 -1.58822 133.91 1.31645C136.209 4.22112 131.413 17.2029 126.549 21.153C121.685 25.1031 118.079 26.976 111.938 32.485C105.797 37.9939 96.9346 49.6647 95.0405 50.7714C91.9461 52.5815 89.483 49.5333 92.615 47.1394C95.747 44.7455 103.034 44.9019 107.178 43.681C111.322 42.4601 154.405 23.3158 159.57 19.9899C164.734 16.664 179.102 15.6158 162.967 27.049C146.831 38.4821 119.251 44.5703 104.926 52.1152C90.6035 59.6663 90.6035 59.6663 90.6035 59.6663M74.4544 57.6876C74.5799 57.8779 109.616 69.3414 130.875 86.3482C152.134 103.355 127.939 91.0241 123.688 88.7392C119.431 86.4574 107.369 81.0693 96.314 75.8864C89.9788 72.9195 83.9671 71.2447 79.5193 70.087M79.5193 70.087C76.5311 64.9756 75.9202 61.7199 72.6948 62.4125C68.949 63.221 70.1876 66.5698 72.6867 68.0164C73.7565 68.6337 76.2071 69.2186 79.5193 70.087ZM79.5193 70.087C81.6909 73.7972 84.107 78.3252 86.4851 82.5067C88.6506 86.3168 90.7834 89.8335 92.6639 92.1922C99.4624 100.7 127.576 119.781 133.427 125.377C139.276 130.982 162.936 151.106 161.104 154.326C159.271 157.546 150.948 149.139 147.843 146.448C145.218 144.161 103.363 110.228 83.6733 90.4543M83.6733 90.4543C80.0748 86.8357 77.2173 83.7005 75.4761 81.3074C68.2946 71.4541 63.8756 62.0169 61.6152 56.4741M83.6733 90.4543C85.7334 93.6932 88.8399 98.0925 93.4702 103.715C104.848 117.514 134.431 141.057 137.057 143.231C139.685 145.411 152.855 161.076 133.749 147.598C114.639 134.115 96.7597 116.172 92.1135 111.193C87.4591 106.211 81.6129 100.612 74.5175 87.7393C67.425 74.8732 68.8149 71.9156 68.8149 71.9156M82.3382 75.0581C82.3382 75.0581 130.202 102.742 138.424 112.813C146.648 122.875 153.521 131.074 134.486 117.281C115.452 103.488 103.096 93.7418 99.2946 91.4627C95.4933 89.1836 86.4828 82.5162 86.4828 82.5162M102.138 53.5756C111.144 55.2886 133.545 59.4414 142.621 60.174C154.116 61.1012 170.795 63.448 178.867 62.4174C186.939 61.3869 205.092 58.3596 183.487 57.0315C161.885 55.694 141.608 53.8435 134.447 53.0188C131.929 52.7305 129.005 51.7682 126.205 50.837M126.205 50.837C121.056 49.1241 116.357 47.5138 115.46 50.4117C114.985 51.945 119.613 51.7602 126.205 50.837ZM126.205 50.837C138.807 49.0785 158.587 44.6137 163.601 44.2725C171.239 43.7481 194.901 40.9286 202.94 39.3643C210.979 37.7999 222.589 35.6988 222.589 35.6988C222.589 35.6988 242.083 28.4277 221.028 29.1721C199.968 29.9196 146.532 39.7189 146.532 39.7189L134.935 40.4245L134.926 40.4214M155.756 104.77C162.95 114.071 175.765 131.012 188.75 149.94C208.386 178.577 204.013 173.701 215.663 189.473C227.304 205.242 221.869 191.129 219.143 186.873C216.42 182.623 209.027 169.133 203.584 160.624C200.645 156.037 191.839 143.737 182.573 130.876M155.756 104.77C155.251 103.874 154.713 102.926 154.139 101.902C143.023 82.0836 138.329 72.3282 138.329 72.3282C138.329 72.3282 147.966 74.0843 169.022 92.543C190.075 111.011 196.25 119.616 199.597 123.769C202.949 127.918 212.714 145.874 196.586 128.754C180.461 111.64 167.573 100.549 161.818 96.548C159.944 95.2446 157.389 93.4703 154.871 91.5617M155.756 104.77C165.096 121.237 164.073 117.504 178.695 141.228C194.112 166.238 177.284 147.664 174.312 143.826C171.335 139.992 157.567 119.339 148.553 102.013C141.185 87.842 133.966 72.1226 131.581 66.8546M182.573 130.876C182.57 130.87 182.567 130.863 182.567 130.863M182.573 130.876C186.92 133.994 193.435 139.109 199.382 145.466C209.472 156.251 217.664 168.81 233.092 184.476C248.52 200.142 238.871 184.78 236.073 180.84C233.276 176.899 207.408 144.214 192.603 131.38C184.02 123.938 177.019 119.504 172.648 117.097M182.573 130.876C182.573 130.876 182.561 130.866 182.567 130.863M182.567 130.863C179.235 126.236 175.841 121.534 172.648 117.097M172.648 117.097L172.645 117.091C168.233 110.963 164.19 105.338 161.171 101.063C158.602 97.4279 156.547 94.2577 154.871 91.5617M154.871 91.5617C149.198 82.394 147.965 78.6892 146.226 80.9634C144.627 83.0501 149.662 87.5979 154.871 91.5617ZM167.924 75.9221C172.744 74.8942 181.287 73.1109 190.173 71.4459L190.178 71.4428M190.178 71.4428C197.531 70.0601 205.108 68.7615 210.994 68.048C210.994 68.048 210.994 68.048 211 68.0449M190.178 71.4428C197.494 66.7852 213.505 57.2632 234.294 48.7828C263.126 37.0272 282.042 44.4889 284.874 45.2172C287.702 45.9392 294.08 49.3619 283.893 49.264C273.7 49.1692 266.432 46.715 245.84 53.0973C230.941 57.7174 217.373 64.5963 211 68.0449M211 68.0449C212.698 67.8406 214.252 67.6895 215.621 67.5916C230.441 66.54 279.409 68.9918 287.845 70.1276C296.282 71.2634 317.245 80.1753 287.407 78.1202C257.564 76.0682 242.252 75.631 236.931 74.8704C235.689 74.6997 232.665 74.8801 228.764 75.2111M228.764 75.2111C222.619 75.7249 214.309 76.5998 207.444 76.9956M228.764 75.2111C242.47 79.2398 269.341 86.9764 286.838 90.9958C311.168 96.58 302.848 101.785 284.399 98.5779C270.725 96.2069 228.774 82.2482 207.444 76.9956M207.444 76.9956C199.967 77.4325 194.191 77.3029 194.72 75.5292C195.065 74.3863 199.999 75.1597 207.444 76.9956ZM195.518 84.5696C197.951 90.3714 202.593 100.864 207.353 108.502C214.276 119.608 241.083 166.415 251.127 179.794C261.17 193.173 265.851 196.816 255.335 177.299C244.819 157.783 226.753 130.084 222.134 121.88C217.513 113.686 211.016 103.395 211.016 103.395C211.016 103.395 265.823 156.002 268.95 159.219C272.076 162.435 295.182 177.545 269.718 152.097C244.258 126.639 229.43 112.221 218.003 101.123C212.925 96.1911 208.54 91.5866 205.23 87.9897M262.301 113.41C267.631 127.064 282.108 163.532 291.306 180.38C302.741 201.341 316.485 223.34 318.032 225.624C319.583 227.904 334.81 243.152 321.093 221.675C307.376 200.198 297.463 186.597 286.387 161.958C279.078 145.683 272.224 127.397 268.409 116.848M273.963 120.15C277.789 117.296 287.829 110.679 302.92 107.077C322.524 102.387 349.396 98.7316 364.645 97.1614C379.893 95.5912 383.313 101.305 362.781 103.6C342.252 105.902 321.087 110.178 311.797 111.946C302.511 113.72 292.212 117.154 287.604 118.818C284.635 119.888 281.116 121.958 278.986 123.293C283.29 131.772 320.575 197.171 334.021 212.945C347.473 228.715 341.98 217.3 339.428 212.94C336.885 208.584 326.338 191.356 314.246 173.721C302.151 156.079 290.914 135.53 289.989 133.143C289.533 131.969 289.625 131.457 290.606 131.269C291.604 131.062 293.532 131.195 296.753 131.267C299.412 131.327 303.728 131.464 308.867 131.707M308.867 131.707C316.003 132.041 324.715 132.581 332.726 133.424C346.495 134.864 363.788 136.614 385.26 144.695C406.731 152.776 396.955 144.164 386.995 139.399C377.036 134.633 366.15 131.211 347.306 128.591C328.463 125.972 304.018 124.827 295.933 125.352C291.891 125.614 287.748 126.345 284.598 127.009M308.867 131.707C315.22 135.33 325.725 141.103 333.412 144.215C345.173 148.979 362.919 154.472 375.554 160.587C388.184 166.705 401.913 178.839 403.593 179.977C405.267 181.118 414.21 193.152 400.483 184.756C386.748 176.356 387.723 176.043 372.636 167.651C362.294 161.894 339.208 152.459 320.725 145.671M299.867 138.598C304.732 139.99 312.241 142.55 320.725 145.671M320.725 145.671C327.481 150.217 336.114 156.748 344.003 164.818C360.098 181.292 376.224 199.93 390.185 218.166C404.145 236.403 387.835 224.524 384.921 221.286C382.013 218.045 371.162 203.468 352.514 182.506C342.131 170.845 328.476 162.399 319.138 156.446M319.138 156.446C315.634 149.868 312.329 143.043 308.874 146.624C307.005 148.558 311.706 151.707 319.138 156.446ZM319.138 156.446C319.908 157.891 320.685 159.324 321.476 160.628C325.874 167.895 333.467 179.927 340.928 189.109C348.39 198.291 356.793 206.386 369.113 219.354C381.438 232.319 370.707 226.414 367.256 223.92C363.803 221.434 356.174 216.355 337.678 192.905C319.182 169.456 304.549 146.54 304.549 146.54" stroke="#233000" stroke-miterlimit="10"/>
</svg>
